# xmcd
#
# Track frame offsets: 
#        150
#        17161
#        25618
#        37453
#        48250
#        64397
#        77071
#        89672
#        105910
#        116258
#        128915
#        141551
#        151362
#        161156
#        171647
#        179588
#        190476
#        200681
#
# Disc length: 2778 seconds
#
# Revision: 2
# Processed by: cddbd v1.5.2PL0 Copyright (c) Steve Scherf et al.
# Submitted via: ExactAudioCopy v1.0b1
#
DISCID=0c0ad812
DTITLE=Johnny Cash - 18 Classic Tracks CD2
DYEAR=2005
DGENRE=Country
TTITLE0=Sunday Morning Coming Down
TTITLE1=Country Boy
TTITLE2=Thanks A Lot
TTITLE3=Open Road
TTITLE4=A Boy Named Sue
TTITLE5=Long Black Veil
TTITLE6=Jackson
TTITLE7=City Of New Orleans
TTITLE8=If I Were A Carpenter
TTITLE9=Peace In The Valley
TTITLE10=Ring Of Fire
TTITLE11=Story Of A Broken Heart
TTITLE12=Born To Lose
TTITLE13=Cold Cold Heart
TTITLE14=I Can't Help (If I'm Still In Love With You)
TTITLE15=I Heard That Lonesome Whistle
TTITLE16=I Was There When It Happened
TTITLE17=If The Good Lord's Willing
EXTD=
EXTT0=
EXTT1=
EXTT2=
EXTT3=
EXTT4=
EXTT5=
EXTT6=
EXTT7=
EXTT8=
EXTT9=
EXTT10=
EXTT11=
EXTT12=
EXTT13=
EXTT14=
EXTT15=
EXTT16=
EXTT17=
PLAYORDER=
